# Made in Blockbench 5.0.7
mtllib positron_rifle.mtl

o cube
v 0.125 0.5 1.046875
v 0.125 0.5 0.421875
v 0.125 0.25 1.046875
v 0.125 0.25 0.421875
v -0.125 0.5 0.421875
v -0.125 0.5 1.046875
v -0.125 0.25 0.421875
v -0.125 0.25 1.046875
vt 0.16533333333333333 0.8933333333333333
vt 0.18666666666666668 0.8933333333333333
vt 0.18666666666666668 0.872
vt 0.16533333333333333 0.872
vt 0.112 0.8933333333333333
vt 0.16533333333333333 0.8933333333333333
vt 0.16533333333333333 0.872
vt 0.112 0.872
vt 0.17066666666666666 0.9359999999999999
vt 0.192 0.9359999999999999
vt 0.192 0.9146666666666666
vt 0.17066666666666666 0.9146666666666666
vt 0.064 0.872
vt 0.11733333333333333 0.872
vt 0.11733333333333333 0.8506666666666667
vt 0.064 0.8506666666666667
vt 0.13866666666666666 0.8186666666666667
vt 0.11733333333333333 0.8186666666666667
vt 0.11733333333333333 0.872
vt 0.13866666666666666 0.872
vt 0.16 0.872
vt 0.13866666666666666 0.872
vt 0.13866666666666666 0.8186666666666667
vt 0.16 0.8186666666666667
vn 0 0 -1
vn 1 0 0
vn 0 0 1
vn -1 0 0
vn 0 1 0
vn 0 -1 0
usemtl m_f0017baf-0af5-642d-3333-72e87ec13467
f 4/4/1 7/3/1 5/2/1 2/1/1
f 3/8/2 4/7/2 2/6/2 1/5/2
f 8/12/3 3/11/3 1/10/3 6/9/3
f 7/16/4 8/15/4 6/14/4 5/13/4
f 6/20/5 1/19/5 2/18/5 5/17/5
f 7/24/6 4/23/6 3/22/6 8/21/6
o cube
v 0.0625 0.375 -0.390625
v 0.0625 0.375 -1.078125
v 0.0625 0.125 -0.390625
v 0.0625 0.125 -1.078125
v -0.0625 0.375 -1.078125
v -0.0625 0.375 -0.390625
v -0.0625 0.125 -1.078125
v -0.0625 0.125 -0.390625
vt 0.128 0.8186666666666667
vt 0.13866666666666666 0.8186666666666667
vt 0.13866666666666666 0.7973333333333333
vt 0.128 0.7973333333333333
vt 0.112 0.9359999999999999
vt 0.17066666666666666 0.9359999999999999
vt 0.17066666666666666 0.9146666666666666
vt 0.112 0.9146666666666666
vt 0.13866666666666666 0.8186666666666667
vt 0.14933333333333335 0.8186666666666667
vt 0.14933333333333335 0.7973333333333333
vt 0.13866666666666666 0.7973333333333333
vt 0.112 0.9146666666666666
vt 0.17066666666666666 0.9146666666666666
vt 0.17066666666666666 0.8933333333333333
vt 0.112 0.8933333333333333
vt 0.07466666666666667 0.792
vt 0.064 0.792
vt 0.064 0.8506666666666667
vt 0.07466666666666667 0.8506666666666667
vt 0.08533333333333333 0.8506666666666667
vt 0.07466666666666667 0.8506666666666667
vt 0.07466666666666667 0.792
vt 0.08533333333333333 0.792
vn 0 0 -1
vn 1 0 0
vn 0 0 1
vn -1 0 0
vn 0 1 0
vn 0 -1 0
usemtl m_f0017baf-0af5-642d-3333-72e87ec13467
f 12/28/7 15/27/7 13/26/7 10/25/7
f 11/32/8 12/31/8 10/30/8 9/29/8
f 16/36/9 11/35/9 9/34/9 14/33/9
f 15/40/10 16/39/10 14/38/10 13/37/10
f 14/44/11 9/43/11 10/42/11 13/41/11
f 15/48/12 12/47/12 11/46/12 16/45/12
o cube
v 0.0625 0.5503213545671855 0.891759978742303
v 0.0625 0.7880441267963288 0.38196184853418735
v 0.0625 0.26710017111823237 0.7596917719483345
v 0.0625 0.5048229433473758 0.24989364174021889
v -0.0625 0.7880441267963288 0.38196184853418735
v -0.0625 0.5503213545671855 0.891759978742303
v -0.0625 0.5048229433473758 0.24989364174021889
v -0.0625 0.26710017111823237 0.7596917719483345
vt 0.17066666666666666 0.8453333333333333
vt 0.18133333333333335 0.8453333333333333
vt 0.18133333333333335 0.8186666666666667
vt 0.17066666666666666 0.8186666666666667
vt 0.064 0.9359999999999999
vt 0.112 0.9359999999999999
vt 0.112 0.9093333333333333
vt 0.064 0.9093333333333333
vt 0.11733333333333333 0.8186666666666667
vt 0.128 0.8186666666666667
vt 0.128 0.792
vt 0.11733333333333333 0.792
vt 0.064 0.9093333333333333
vt 0.112 0.9093333333333333
vt 0.112 0.8826666666666667
vt 0.064 0.8826666666666667
vt 0.096 0.8026666666666666
vt 0.08533333333333333 0.8026666666666666
vt 0.08533333333333333 0.8506666666666667
vt 0.096 0.8506666666666667
vt 0.10666666666666667 0.8506666666666667
vt 0.096 0.8506666666666667
vt 0.096 0.8026666666666666
vt 0.10666666666666667 0.8026666666666666
vn 0 0.42261826174069944 -0.9063077870366499
vn 1 0 0
vn 0 -0.42261826174069944 0.9063077870366499
vn -1 0 0
vn 0 0.9063077870366499 0.42261826174069944
vn 0 -0.9063077870366499 -0.42261826174069944
usemtl m_f0017baf-0af5-642d-3333-72e87ec13467
f 20/52/13 23/51/13 21/50/13 18/49/13
f 19/56/14 20/55/14 18/54/14 17/53/14
f 24/60/15 19/59/15 17/58/15 22/57/15
f 23/64/16 24/63/16 22/62/16 21/61/16
f 22/68/17 17/67/17 18/66/17 21/65/17
f 23/72/18 20/71/18 19/70/18 24/69/18
o cube
v 0.0625 0.75 0.359375
v 0.0625 0.75 -1.453125
v 0.0625 0.5625 0.359375
v 0.0625 0.5625 -1.453125
v -0.0625 0.75 -1.453125
v -0.0625 0.75 0.359375
v -0.0625 0.5625 -1.453125
v -0.0625 0.5625 0.359375
vt 0.14933333333333335 0.8186666666666667
vt 0.16 0.8186666666666667
vt 0.16 0.8026666666666666
vt 0.14933333333333335 0.8026666666666666
vt 0.042666666666666665 0.968
vt 0.19733333333333333 0.968
vt 0.19733333333333333 0.952
vt 0.042666666666666665 0.952
vt 0.18133333333333335 0.8453333333333333
vt 0.192 0.8453333333333333
vt 0.192 0.8293333333333334
vt 0.18133333333333335 0.8293333333333334
vt 0.042666666666666665 0.952
vt 0.19733333333333333 0.952
vt 0.19733333333333333 0.9359999999999999
vt 0.042666666666666665 0.9359999999999999
vt 0.05333333333333334 0.7813333333333333
vt 0.042666666666666665 0.7813333333333333
vt 0.042666666666666665 0.9359999999999999
vt 0.05333333333333334 0.9359999999999999
vt 0.064 0.9359999999999999
vt 0.05333333333333334 0.9359999999999999
vt 0.05333333333333334 0.7813333333333333
vt 0.064 0.7813333333333333
vn 0 0 -1
vn 1 0 0
vn 0 0 1
vn -1 0 0
vn 0 1 0
vn 0 -1 0
usemtl m_f0017baf-0af5-642d-3333-72e87ec13467
f 28/76/19 31/75/19 29/74/19 26/73/19
f 27/80/20 28/79/20 26/78/20 25/77/20
f 32/84/21 27/83/21 25/82/21 30/81/21
f 31/88/22 32/87/22 30/86/22 29/85/22
f 30/92/23 25/91/23 26/90/23 29/89/23
f 31/96/24 28/95/24 27/94/24 32/93/24
o cube
v 0.0625 0.20302878722761108 0.31355678205890136
v 0.0625 0.5244225920708806 -0.06946543950058759
v 0.0625 0.10727323183773874 0.2332083308480839
v 0.0625 0.42866703668100836 -0.14981389071140505
v -0.0625 0.5244225920708806 -0.06946543950058759
v -0.0625 0.20302878722761108 0.31355678205890136
v -0.0625 0.42866703668100836 -0.14981389071140505
v -0.0625 0.10727323183773874 0.2332083308480839
vt 0.16 0.8186666666666667
vt 0.17066666666666666 0.8186666666666667
vt 0.17066666666666666 0.808
vt 0.16 0.808
vt 0.064 0.8826666666666667
vt 0.10666666666666667 0.8826666666666667
vt 0.10666666666666667 0.872
vt 0.064 0.872
vt 0.17066666666666666 0.8186666666666667
vt 0.18133333333333335 0.8186666666666667
vt 0.18133333333333335 0.808
vt 0.17066666666666666 0.808
vt 0.16 0.872
vt 0.20266666666666666 0.872
vt 0.20266666666666666 0.8613333333333333
vt 0.16 0.8613333333333333
vt 0.11733333333333333 0.808
vt 0.10666666666666667 0.808
vt 0.10666666666666667 0.8506666666666667
vt 0.11733333333333333 0.8506666666666667
vt 0.17066666666666666 0.8613333333333333
vt 0.16 0.8613333333333333
vt 0.16 0.8186666666666667
vt 0.17066666666666666 0.8186666666666667
vn 0 0.6427876096865394 -0.7660444431189781
vn 1 0 0
vn 0 -0.6427876096865394 0.7660444431189781
vn -1 0 0
vn 0 0.7660444431189781 0.6427876096865394
vn 0 -0.7660444431189781 -0.6427876096865394
usemtl m_f0017baf-0af5-642d-3333-72e87ec13467
f 36/100/25 39/99/25 37/98/25 34/97/25
f 35/104/26 36/103/26 34/102/26 33/101/26
f 40/108/27 35/107/27 33/106/27 38/105/27
f 39/112/28 40/111/28 38/110/28 37/109/28
f 38/116/29 33/115/29 34/114/29 37/113/29
f 39/120/30 36/119/30 35/118/30 40/117/30
o cube
v 0.125 0.5625 0.8125
v 0.125 0.5625 -1.5
v 0.125 0.375 0.8125
v 0.125 0.375 -1.5
v -0.125 0.5625 -1.5
v -0.125 0.5625 0.8125
v -0.125 0.375 -1.5
v -0.125 0.375 0.8125
vt 0.17066666666666666 0.9146666666666666
vt 0.192 0.9146666666666666
vt 0.192 0.8986666666666667
vt 0.17066666666666666 0.8986666666666667
vt 0.042666666666666665 1
vt 0.24 1
vt 0.24 0.984
vt 0.042666666666666665 0.984
vt 0.17066666666666666 0.8613333333333333
vt 0.192 0.8613333333333333
vt 0.192 0.8453333333333333
vt 0.17066666666666666 0.8453333333333333
vt 0.042666666666666665 0.984
vt 0.24 0.984
vt 0.24 0.968
vt 0.042666666666666665 0.968
vt 0.021333333333333333 0.8026666666666666
vt 0 0.8026666666666666
vt 0 1
vt 0.021333333333333333 1
vt 0.042666666666666665 1
vt 0.021333333333333333 1
vt 0.021333333333333333 0.8026666666666666
vt 0.042666666666666665 0.8026666666666666
vn 0 0 -1
vn 1 0 0
vn 0 0 1
vn -1 0 0
vn 0 1 0
vn 0 -1 0
usemtl m_f0017baf-0af5-642d-3333-72e87ec13467
f 44/124/31 47/123/31 45/122/31 42/121/31
f 43/128/32 44/127/32 42/126/32 41/125/32
f 48/132/33 43/131/33 41/130/33 46/129/33
f 47/136/34 48/135/34 46/134/34 45/133/34
f 46/140/35 41/139/35 42/138/35 45/137/35
f 47/144/36 44/143/36 43/142/36 48/141/36